<svg xmlns="http://www.w3.org/2000/svg" xmlns:xlink="http://www.w3.org/1999/xlink" class="svglite" width="720.00pt" height="576.00pt" viewBox="0 0 720.00 576.00">
<defs>
  <style type="text/css"><![CDATA[
    .svglite line, .svglite polyline, .svglite polygon, .svglite path, .svglite rect, .svglite circle {
      fill: none;
      stroke: #000000;
      stroke-linecap: round;
      stroke-linejoin: round;
      stroke-miterlimit: 10.00;
    }
  ]]></style>
</defs>
<rect width="100%" height="100%" style="stroke: none; fill: #FFFFFF;"/>
<defs>
  <clipPath id="cpMC4wMHw3MjAuMDB8MC4wMHw1NzYuMDA=">
    <rect x="0.00" y="0.00" width="720.00" height="576.00"/>
  </clipPath>
</defs>
<g clip-path="url(#cpMC4wMHw3MjAuMDB8MC4wMHw1NzYuMDA=)">
</g>
<defs>
  <clipPath id="cpNTkuMDR8Njg5Ljc2fDU5LjA0fDUwMi41Ng==">
    <rect x="59.04" y="59.04" width="630.72" height="443.52"/>
  </clipPath>
</defs>
<g clip-path="url(#cpNTkuMDR8Njg5Ljc2fDU5LjA0fDUwMi41Ng==)">
<line x1="88.42" y1="173.63" x2="104.24" y2="183.98" style="stroke-width: 0.75;"/>
<line x1="110.93" y1="195.10" x2="137.38" y2="478.96" style="stroke-width: 0.75;"/>
<line x1="138.90" y1="478.98" x2="165.00" y2="257.75" style="stroke-width: 0.75;"/>
<line x1="167.23" y1="257.67" x2="192.24" y2="384.95" style="stroke-width: 0.75;"/>
<line x1="199.93" y1="395.49" x2="215.19" y2="403.89" style="stroke-width: 0.75;"/>
<line x1="228.69" y1="407.65" x2="242.08" y2="408.18" style="stroke-width: 0.75;"/>
<line x1="250.76" y1="401.42" x2="275.59" y2="282.93" style="stroke-width: 0.75;"/>
<line x1="279.15" y1="282.77" x2="302.77" y2="360.83" style="stroke-width: 0.75;"/>
<line x1="305.55" y1="360.56" x2="332.03" y2="86.87" style="stroke-width: 0.75;"/>
<line x1="333.35" y1="86.88" x2="359.87" y2="386.56" style="stroke-width: 0.75;"/>
<line x1="365.69" y1="388.74" x2="383.11" y2="371.96" style="stroke-width: 0.75;"/>
<line x1="393.33" y1="361.82" x2="411.05" y2="343.72" style="stroke-width: 0.75;"/>
<line x1="417.06" y1="331.44" x2="442.97" y2="142.89" style="stroke-width: 0.75;"/>
<line x1="444.93" y1="142.89" x2="470.75" y2="329.18" style="stroke-width: 0.75;"/>
<line x1="474.44" y1="329.64" x2="496.81" y2="274.59" style="stroke-width: 0.75;"/>
<line x1="502.76" y1="261.49" x2="524.07" y2="219.27" style="stroke-width: 0.75;"/>
<line x1="528.80" y1="205.80" x2="553.69" y2="87.85" style="stroke-width: 0.75;"/>
<line x1="561.98" y1="83.15" x2="576.16" y2="88.05" style="stroke-width: 0.75;"/>
<line x1="584.02" y1="97.53" x2="609.69" y2="269.47" style="stroke-width: 0.75;"/>
<line x1="611.87" y1="283.71" x2="637.42" y2="446.13" style="stroke-width: 0.75;"/>
<line x1="639.07" y1="446.07" x2="665.87" y2="82.65" style="stroke-width: 0.75;"/>
<circle cx="82.40" cy="169.69" r="2.70" style="stroke-width: 0.75;"/>
<circle cx="110.26" cy="187.93" r="2.70" style="stroke-width: 0.75;"/>
<circle cx="138.05" cy="486.13" r="2.70" style="stroke-width: 0.75;"/>
<circle cx="165.84" cy="250.60" r="2.70" style="stroke-width: 0.75;"/>
<circle cx="193.63" cy="392.01" r="2.70" style="stroke-width: 0.75;"/>
<circle cx="221.49" cy="407.37" r="2.70" style="stroke-width: 0.75;"/>
<circle cx="249.28" cy="408.47" r="2.70" style="stroke-width: 0.75;"/>
<circle cx="277.07" cy="275.88" r="2.70" style="stroke-width: 0.75;"/>
<circle cx="304.85" cy="367.72" r="2.70" style="stroke-width: 0.75;"/>
<circle cx="332.72" cy="79.71" r="2.70" style="stroke-width: 0.75;"/>
<circle cx="360.51" cy="393.73" r="2.70" style="stroke-width: 0.75;"/>
<circle cx="388.29" cy="366.97" r="2.70" style="stroke-width: 0.75;"/>
<circle cx="416.08" cy="338.57" r="2.70" style="stroke-width: 0.75;"/>
<circle cx="443.95" cy="135.75" r="2.70" style="stroke-width: 0.75;"/>
<circle cx="471.73" cy="336.31" r="2.70" style="stroke-width: 0.75;"/>
<circle cx="499.52" cy="267.92" r="2.70" style="stroke-width: 0.75;"/>
<circle cx="527.31" cy="212.84" r="2.70" style="stroke-width: 0.75;"/>
<circle cx="555.17" cy="80.80" r="2.70" style="stroke-width: 0.75;"/>
<circle cx="582.96" cy="90.41" r="2.70" style="stroke-width: 0.75;"/>
<circle cx="610.75" cy="276.59" r="2.70" style="stroke-width: 0.75;"/>
<circle cx="638.54" cy="453.25" r="2.70" style="stroke-width: 0.75;"/>
<circle cx="666.40" cy="75.47" r="2.70" style="stroke-width: 0.75;"/>
</g>
<g clip-path="url(#cpMC4wMHw3MjAuMDB8MC4wMHw1NzYuMDA=)">
<line x1="82.40" y1="502.56" x2="638.54" y2="502.56" style="stroke-width: 0.75;"/>
<line x1="82.40" y1="502.56" x2="82.40" y2="509.76" style="stroke-width: 0.75;"/>
<line x1="221.49" y1="502.56" x2="221.49" y2="509.76" style="stroke-width: 0.75;"/>
<line x1="360.51" y1="502.56" x2="360.51" y2="509.76" style="stroke-width: 0.75;"/>
<line x1="499.52" y1="502.56" x2="499.52" y2="509.76" style="stroke-width: 0.75;"/>
<line x1="638.54" y1="502.56" x2="638.54" y2="509.76" style="stroke-width: 0.75;"/>
<text x="82.40" y="528.48" text-anchor="middle" style="font-size: 12.00px; font-family: Arial;" textLength="30.56px" lengthAdjust="spacingAndGlyphs">2000</text>
<text x="221.49" y="528.48" text-anchor="middle" style="font-size: 12.00px; font-family: Arial;" textLength="30.56px" lengthAdjust="spacingAndGlyphs">2005</text>
<text x="360.51" y="528.48" text-anchor="middle" style="font-size: 12.00px; font-family: Arial;" textLength="30.56px" lengthAdjust="spacingAndGlyphs">2010</text>
<text x="499.52" y="528.48" text-anchor="middle" style="font-size: 12.00px; font-family: Arial;" textLength="30.56px" lengthAdjust="spacingAndGlyphs">2015</text>
<text x="638.54" y="528.48" text-anchor="middle" style="font-size: 12.00px; font-family: Arial;" textLength="30.56px" lengthAdjust="spacingAndGlyphs">2020</text>
<line x1="59.04" y1="468.71" x2="59.04" y2="70.57" style="stroke-width: 0.75;"/>
<line x1="59.04" y1="468.71" x2="51.84" y2="468.71" style="stroke-width: 0.75;"/>
<line x1="59.04" y1="369.17" x2="51.84" y2="369.17" style="stroke-width: 0.75;"/>
<line x1="59.04" y1="269.64" x2="51.84" y2="269.64" style="stroke-width: 0.75;"/>
<line x1="59.04" y1="170.10" x2="51.84" y2="170.10" style="stroke-width: 0.75;"/>
<line x1="59.04" y1="70.57" x2="51.84" y2="70.57" style="stroke-width: 0.75;"/>
<text x="44.64" y="473.08" text-anchor="end" style="font-size: 12.00px; font-family: Arial;" textLength="19.09px" lengthAdjust="spacingAndGlyphs">0.2</text>
<text x="44.64" y="373.55" text-anchor="end" style="font-size: 12.00px; font-family: Arial;" textLength="19.09px" lengthAdjust="spacingAndGlyphs">0.4</text>
<text x="44.64" y="274.01" text-anchor="end" style="font-size: 12.00px; font-family: Arial;" textLength="19.09px" lengthAdjust="spacingAndGlyphs">0.6</text>
<text x="44.64" y="174.48" text-anchor="end" style="font-size: 12.00px; font-family: Arial;" textLength="19.09px" lengthAdjust="spacingAndGlyphs">0.8</text>
<text x="44.64" y="74.94" text-anchor="end" style="font-size: 12.00px; font-family: Arial;" textLength="19.09px" lengthAdjust="spacingAndGlyphs">1.0</text>
<polyline points="59.04,502.56 689.76,502.56 689.76,59.04 59.04,59.04 59.04,502.56 " style="stroke-width: 0.75;"/>
<text x="374.40" y="34.77" text-anchor="middle" style="font-size: 14.40px; font-weight: bold; font-family: Arial;" textLength="32.10px" lengthAdjust="spacingAndGlyphs">test</text>
<text x="374.40" y="557.28" text-anchor="middle" style="font-size: 12.00px; font-family: Arial;" textLength="25.42px" lengthAdjust="spacingAndGlyphs">Year</text>
<text transform="translate(12.96,280.80) rotate(-90)" text-anchor="middle" style="font-size: 12.00px; font-family: Arial;" textLength="53.05px" lengthAdjust="spacingAndGlyphs">Indicator</text>
</g>
</svg>
